<svg width="121" height="32" viewBox="0 0 910 240" fill="none" xmlns="http://www.w3.org/2000/svg">
<path d="M 193.06 175.91 A 92 92 0 0 1 166.32 199.49 L 145.50 158.28 A 46 46 0 0 0 154.79 150.10 Z" fill="#4ade80" stroke="#4ade80" stroke-width="7" stroke-linejoin="round"/>
<path d="M 156.50 204.45 A 92 92 0 0 1 121.65 211.99 L 123.58 165.86 A 46 46 0 0 0 135.68 163.24 Z" fill="#3dd675" stroke="#3dd675" stroke-width="7" stroke-linejoin="round"/>
<path d="M 110.66 211.52 A 92 92 0 0 1 76.56 201.10 L 100.75 161.78 A 46 46 0 0 0 112.59 165.40 Z" fill="#2fcd69" stroke="#2fcd69" stroke-width="7" stroke-linejoin="round"/>
<path d="M 67.20 195.34 A 92 92 0 0 1 42.52 169.60 L 82.82 147.08 A 46 46 0 0 0 91.39 156.02 Z" fill="#22c55e" stroke="#22c55e" stroke-width="7" stroke-linejoin="round"/>
<path d="M 37.15 160.00 A 92 92 0 0 1 28.16 125.50 L 74.33 125.50 A 46 46 0 0 0 77.45 137.48 Z" fill="#18b562" stroke="#18b562" stroke-width="7" stroke-linejoin="round"/>
<path d="M 28.16 114.50 A 92 92 0 0 1 37.15 80.00 L 77.45 102.52 A 46 46 0 0 0 74.33 114.50 Z" fill="#0fa665" stroke="#0fa665" stroke-width="7" stroke-linejoin="round"/>
<path d="M 42.52 70.40 A 92 92 0 0 1 67.20 44.66 L 91.39 83.98 A 46 46 0 0 0 82.82 92.92 Z" fill="#059669" stroke="#059669" stroke-width="7" stroke-linejoin="round"/>
<path d="M 76.56 38.90 A 92 92 0 0 1 110.66 28.48 L 112.59 74.60 A 46 46 0 0 0 100.75 78.22 Z" fill="#058c63" stroke="#058c63" stroke-width="7" stroke-linejoin="round"/>
<path d="M 121.65 28.01 A 92 92 0 0 1 156.50 35.55 L 135.68 76.76 A 46 46 0 0 0 123.58 74.14 Z" fill="#04825d" stroke="#04825d" stroke-width="7" stroke-linejoin="round"/>
<path d="M 166.32 40.51 A 92 92 0 0 1 193.06 64.09 L 154.79 89.90 A 46 46 0 0 0 145.50 81.72 Z" fill="#047857" stroke="#047857" stroke-width="7" stroke-linejoin="round"/>
<path d="M361.03 211.50L225.26 211.50L225.26 28.50L359.48 28.50L359.48 67.47L271.46 67.47L271.46 99.22L351.73 99.22L351.73 137.16L271.46 137.16L271.46 172.53L361.03 172.53L361.03 211.50M433.30 211.50L387.10 211.50L387.10 28.50L465.05 28.50Q483.63 28.50 497.70 35.47Q511.76 42.44 519.76 54.57Q527.77 66.70 527.77 82.96Q527.77 99.22 519.64 111.48Q511.50 123.74 497.05 130.45Q490.86 133.55 483.63 135.10L539.64 211.50L486.21 211.50L436.14 137.42L433.30 137.42L433.30 211.50M458.59 62.83L433.30 62.83L433.30 104.38L458.59 104.38Q469.95 104.38 476.01 98.83Q482.08 93.29 482.08 83.74Q482.08 74.44 476.01 68.64Q469.95 62.83 458.59 62.83M600.81 211.50L554.61 211.50L554.61 28.50L586.87 28.50L668.95 132.52L668.95 28.50L715.15 28.50L715.15 211.50L680.83 211.50L600.81 109.80L600.81 211.50M883.44 211.50L747.68 211.50L747.68 28.50L881.89 28.50L881.89 67.47L793.88 67.47L793.88 99.22L874.15 99.22L874.15 137.16L793.88 137.16L793.88 172.53L883.44 172.53" fill="#111827"/>
</svg>
