<svg width="32" height="32" viewBox="0 0 240 240" fill="none" xmlns="http://www.w3.org/2000/svg">
<rect x="16" y="16" width="208" height="208" rx="52" ry="52" fill="#059669"/>
<path d="M128.06 180.76Q115.13 180.76 104.05 176.15Q92.98 171.53 84.67 163.22Q76.36 154.91 71.91 143.83Q67.46 132.76 67.46 120Q67.46 107.24 71.91 96.17Q76.36 85.09 84.67 76.86Q92.98 68.64 103.97 63.94Q114.96 59.24 128.06 59.24Q142.16 59.24 152.90 63.85Q163.64 68.47 171.87 76.53L156.42 91.97Q151.56 86.60 144.51 83.58Q137.46 80.55 128.06 80.55Q119.83 80.55 113.03 83.32Q106.24 86.09 101.20 91.38Q96.17 96.67 93.48 103.97Q90.79 111.27 90.79 120Q90.79 128.90 93.48 136.11Q96.17 143.33 101.20 148.62Q106.24 153.91 113.03 156.76Q119.83 159.61 128.06 159.61Q137.96 159.61 145.09 156.59Q152.23 153.57 157.10 148.03L172.54 163.47Q164.31 171.70 153.40 176.23Q142.49 180.76 128.06 180.76" fill="#ffffff"/>
</svg>
