<svg width="119" height="32" viewBox="0 0 890 240" fill="none" xmlns="http://www.w3.org/2000/svg">
<path d="M 193.06 175.91 A 92 92 0 0 1 166.32 199.49 L 145.50 158.28 A 46 46 0 0 0 154.79 150.10 Z" fill="#4ade80" stroke="#4ade80" stroke-width="7" stroke-linejoin="round"/>
<path d="M 156.50 204.45 A 92 92 0 0 1 121.65 211.99 L 123.58 165.86 A 46 46 0 0 0 135.68 163.24 Z" fill="#3dd675" stroke="#3dd675" stroke-width="7" stroke-linejoin="round"/>
<path d="M 110.66 211.52 A 92 92 0 0 1 76.56 201.10 L 100.75 161.78 A 46 46 0 0 0 112.59 165.40 Z" fill="#2fcd69" stroke="#2fcd69" stroke-width="7" stroke-linejoin="round"/>
<path d="M 67.20 195.34 A 92 92 0 0 1 42.52 169.60 L 82.82 147.08 A 46 46 0 0 0 91.39 156.02 Z" fill="#22c55e" stroke="#22c55e" stroke-width="7" stroke-linejoin="round"/>
<path d="M 37.15 160.00 A 92 92 0 0 1 28.16 125.50 L 74.33 125.50 A 46 46 0 0 0 77.45 137.48 Z" fill="#18b562" stroke="#18b562" stroke-width="7" stroke-linejoin="round"/>
<path d="M 28.16 114.50 A 92 92 0 0 1 37.15 80.00 L 77.45 102.52 A 46 46 0 0 0 74.33 114.50 Z" fill="#0fa665" stroke="#0fa665" stroke-width="7" stroke-linejoin="round"/>
<path d="M 42.52 70.40 A 92 92 0 0 1 67.20 44.66 L 91.39 83.98 A 46 46 0 0 0 82.82 92.92 Z" fill="#059669" stroke="#059669" stroke-width="7" stroke-linejoin="round"/>
<path d="M 76.56 38.90 A 92 92 0 0 1 110.66 28.48 L 112.59 74.60 A 46 46 0 0 0 100.75 78.22 Z" fill="#058c63" stroke="#058c63" stroke-width="7" stroke-linejoin="round"/>
<path d="M 121.65 28.01 A 92 92 0 0 1 156.50 35.55 L 135.68 76.76 A 46 46 0 0 0 123.58 74.14 Z" fill="#04825d" stroke="#04825d" stroke-width="7" stroke-linejoin="round"/>
<path d="M 166.32 40.51 A 92 92 0 0 1 193.06 64.09 L 154.79 89.90 A 46 46 0 0 0 145.50 81.72 Z" fill="#047857" stroke="#047857" stroke-width="7" stroke-linejoin="round"/>
<path d="M355.04 211.50L227.74 211.50L227.74 28.50L353.73 28.50L353.73 59.74L263.15 59.74L263.15 102.95L345.92 102.95L345.92 133.15L263.15 133.15L263.15 180.26L355.04 180.26L355.04 211.50M419.85 211.50L384.45 211.50L384.45 28.50L456.04 28.50Q473.74 28.50 487.14 35.40Q500.55 42.30 507.97 54.27Q515.39 66.25 515.39 81.86Q515.39 98 507.97 109.85Q500.55 121.69 487.01 128.20Q477.64 132.89 466.19 134.45L527.36 211.50L484.41 211.50L426.10 134.97L419.85 134.97L419.85 211.50M452.91 57.39L419.85 57.39L419.85 107.37L452.91 107.37Q465.93 107.37 473.09 100.74Q480.25 94.10 480.25 82.38Q480.25 71.71 473.09 64.55Q465.93 57.39 452.91 57.39M582.81 211.50L547.41 211.50L547.41 28.50L572.14 28.50L663.77 147.20L663.77 28.50L699.43 28.50L699.43 211.50L673.92 211.50L582.81 93.58L582.81 211.50M863.95 211.50L736.65 211.50L736.65 28.50L862.65 28.50L862.65 59.74L772.06 59.74L772.06 102.95L854.84 102.95L854.84 133.15L772.06 133.15L772.06 180.26L863.95 180.26" fill="#111827"/>
</svg>
