<svg width="112" height="32" viewBox="0 0 840 240" fill="none" xmlns="http://www.w3.org/2000/svg">
<path d="M 193.06 175.91 A 92 92 0 0 1 166.32 199.49 L 145.50 158.28 A 46 46 0 0 0 154.79 150.10 Z" fill="#86efac" stroke="#86efac" stroke-width="7" stroke-linejoin="round"/>
<path d="M 156.50 204.45 A 92 92 0 0 1 121.65 211.99 L 123.58 165.86 A 46 46 0 0 0 135.68 163.24 Z" fill="#79eba2" stroke="#79eba2" stroke-width="7" stroke-linejoin="round"/>
<path d="M 110.66 211.52 A 92 92 0 0 1 76.56 201.10 L 100.75 161.78 A 46 46 0 0 0 112.59 165.40 Z" fill="#6be798" stroke="#6be798" stroke-width="7" stroke-linejoin="round"/>
<path d="M 67.20 195.34 A 92 92 0 0 1 42.52 169.60 L 82.82 147.08 A 46 46 0 0 0 91.39 156.02 Z" fill="#5ee48f" stroke="#5ee48f" stroke-width="7" stroke-linejoin="round"/>
<path d="M 37.15 160.00 A 92 92 0 0 1 28.16 125.50 L 74.33 125.50 A 46 46 0 0 0 77.45 137.48 Z" fill="#51e085" stroke="#51e085" stroke-width="7" stroke-linejoin="round"/>
<path d="M 28.16 114.50 A 92 92 0 0 1 37.15 80.00 L 77.45 102.52 A 46 46 0 0 0 74.33 114.50 Z" fill="#46db7c" stroke="#46db7c" stroke-width="7" stroke-linejoin="round"/>
<path d="M 42.52 70.40 A 92 92 0 0 1 67.20 44.66 L 91.39 83.98 A 46 46 0 0 0 82.82 92.92 Z" fill="#3dd675" stroke="#3dd675" stroke-width="7" stroke-linejoin="round"/>
<path d="M 76.56 38.90 A 92 92 0 0 1 110.66 28.48 L 112.59 74.60 A 46 46 0 0 0 100.75 78.22 Z" fill="#34d06d" stroke="#34d06d" stroke-width="7" stroke-linejoin="round"/>
<path d="M 121.65 28.01 A 92 92 0 0 1 156.50 35.55 L 135.68 76.76 A 46 46 0 0 0 123.58 74.14 Z" fill="#2bcb66" stroke="#2bcb66" stroke-width="7" stroke-linejoin="round"/>
<path d="M 166.32 40.51 A 92 92 0 0 1 193.06 64.09 L 154.79 89.90 A 46 46 0 0 0 145.50 81.72 Z" fill="#22c55e" stroke="#22c55e" stroke-width="7" stroke-linejoin="round"/>
<path d="M 396.14 91.89 A 49 49 0 1 0 396.14 148.11 M 454 71 V 169 M 454 71 H 505 M 454 120 H 499 M 454 169 H 505 M 554 169 V 71 H 584 A 24.5 24.5 0 0 1 584 120 H 554 M 586 120 L 605 169 M 654 169 V 71 L 705 169 V 71 M 754 71 V 169 M 754 71 H 805 M 754 120 H 799 M 754 169 H 805" fill="none" stroke="#ffffff" stroke-width="22" stroke-linecap="round" stroke-linejoin="round"/>
</svg>
