<svg xmlns="http://www.w3.org/2000/svg" viewBox="0 0 1000 560" width="1000" height="560" role="img"><rect width="1000" height="560" fill="#ffffff"/><defs>
  <filter id="rough" x="-6%" y="-6%" width="112%" height="112%">
    <feTurbulence type="fractalNoise" baseFrequency="0.011" numOctaves="2" seed="7" result="n"/>
    <feDisplacementMap in="SourceGraphic" in2="n" scale="3.1"/>
  </filter>
  <filter id="rough2" x="-6%" y="-6%" width="112%" height="112%">
    <feTurbulence type="fractalNoise" baseFrequency="0.02" numOctaves="2" seed="10" result="n2"/>
    <feDisplacementMap in="SourceGraphic" in2="n2" scale="2"/>
  </filter>
</defs><g filter="url(#rough)"><path d="M250,420 C120,420 70,300 130,200 C195,92 360,80 500,80 C640,80 805,92 870,200 C930,300 880,420 750,420" fill="none" stroke="#ef8a1f" stroke-width="7" stroke-linecap="round" stroke-linejoin="round"/></g><g transform="translate(255 418) rotate(150)"><path d="M0,0 L-16,-9 L-16,9 Z" fill="#ef8a1f"/></g><g filter="url(#rough2)"><circle cx="150" cy="235" r="6" fill="#15130f"/><circle cx="330" cy="95" r="6" fill="#15130f"/><circle cx="560" cy="88" r="6" fill="#15130f"/><circle cx="790" cy="130" r="6" fill="#15130f"/><circle cx="905" cy="305" r="6" fill="#15130f"/></g><text x="150" y="265" fill="#15130f" font-family="Caveat, Segoe Script, cursive" font-size="24" font-weight="400" text-anchor="middle">descobrir</text><text x="330" y="81" fill="#15130f" font-family="Caveat, Segoe Script, cursive" font-size="24" font-weight="400" text-anchor="middle">construir</text><text x="560" y="74" fill="#15130f" font-family="Caveat, Segoe Script, cursive" font-size="24" font-weight="400" text-anchor="middle">entregar</text><text x="790" y="116" fill="#15130f" font-family="Caveat, Segoe Script, cursive" font-size="24" font-weight="400" text-anchor="middle">documentar</text><text x="905" y="335" fill="#15130f" font-family="Caveat, Segoe Script, cursive" font-size="24" font-weight="400" text-anchor="middle">medir</text><g transform="translate(470 330) scale(-0.92 0.92)" filter="url(#rough)"><path d="M43,6 C20,6 13,29 16,58 C18,87 25,111 43,111 C61,111 68,87 70,58 C73,29 66,6 43,6 Z" fill="#15130f"/><circle cx="34" cy="50" r="5.4" fill="#fff"/><circle cx="53" cy="50" r="5.4" fill="#fff"/><path d="M35,109 L31,127" fill="none" stroke="#15130f" stroke-width="4" stroke-linecap="round" stroke-linejoin="round"/><path d="M31,127 L40,128" fill="none" stroke="#15130f" stroke-width="4" stroke-linecap="round" stroke-linejoin="round"/><path d="M51,109 L55,127" fill="none" stroke="#15130f" stroke-width="4" stroke-linecap="round" stroke-linejoin="round"/><path d="M55,127 L64,128" fill="none" stroke="#15130f" stroke-width="4" stroke-linecap="round" stroke-linejoin="round"/></g><path d="M512,355 C520,330 530,322 545,322" fill="none" stroke="#15130f" stroke-width="4" stroke-linecap="round" stroke-linejoin="round"/><path d="M476,360 C470,335 462,326 450,324" fill="none" stroke="#15130f" stroke-width="4" stroke-linecap="round" stroke-linejoin="round"/><g filter="url(#rough)"><path d="M438,300 h70 v40 h-70 Z" fill="none" stroke="#15130f" stroke-width="3.2" stroke-linecap="round" stroke-linejoin="round"/></g><text x="473" y="326" fill="#15130f" font-family="Caveat, Segoe Script, cursive" font-size="22" font-weight="400" text-anchor="middle">entrega</text><text x="500" y="50" fill="#d83a2c" font-family="Caveat, Segoe Script, cursive" font-size="30" font-weight="400" text-anchor="middle">não termina na entrega</text><text x="250" y="470" fill="#ef8a1f" font-family="Caveat, Segoe Script, cursive" font-size="25" font-weight="400" text-anchor="middle">de volta ao início</text></svg>