<svg xmlns="http://www.w3.org/2000/svg" viewBox="0 0 1000 560" width="1000" height="560" role="img"><rect width="1000" height="560" fill="#ffffff"/><defs>
  <filter id="rough" x="-6%" y="-6%" width="112%" height="112%">
    <feTurbulence type="fractalNoise" baseFrequency="0.011" numOctaves="2" seed="11" result="n"/>
    <feDisplacementMap in="SourceGraphic" in2="n" scale="3.1"/>
  </filter>
  <filter id="rough2" x="-6%" y="-6%" width="112%" height="112%">
    <feTurbulence type="fractalNoise" baseFrequency="0.02" numOctaves="2" seed="14" result="n2"/>
    <feDisplacementMap in="SourceGraphic" in2="n2" scale="2"/>
  </filter>
</defs><g filter="url(#rough)"><path d="M300,430 h360 v56 h-360 Z" fill="none" stroke="#15130f" stroke-width="3.2" stroke-linecap="round" stroke-linejoin="round"/><path d="M320,374 h320 v56 h-320 Z" fill="none" stroke="#15130f" stroke-width="3.2" stroke-linecap="round" stroke-linejoin="round"/><path d="M335,318 h290 v56 h-290 Z" fill="none" stroke="#15130f" stroke-width="3.2" stroke-linecap="round" stroke-linejoin="round"/><path d="M350,262 h260 v56 h-260 Z" fill="none" stroke="#15130f" stroke-width="3.2" stroke-linecap="round" stroke-linejoin="round"/><path d="M368,206 h224 v56 h-224 Z" fill="none" stroke="#15130f" stroke-width="3.2" stroke-linecap="round" stroke-linejoin="round"/><path d="M384,150 h192 v56 h-192 Z" fill="none" stroke="#15130f" stroke-width="3.2" stroke-linecap="round" stroke-linejoin="round"/></g><text x="480.0" y="467" fill="#15130f" font-family="Caveat, Segoe Script, cursive" font-size="25" font-weight="400" text-anchor="middle">tokens</text><text x="480.0" y="411" fill="#15130f" font-family="Caveat, Segoe Script, cursive" font-size="25" font-weight="400" text-anchor="middle">@gb/ui — núcleo</text><text x="480.0" y="355" fill="#15130f" font-family="Caveat, Segoe Script, cursive" font-size="25" font-weight="400" text-anchor="middle">governança federada</text><text x="480.0" y="299" fill="#15130f" font-family="Caveat, Segoe Script, cursive" font-size="25" font-weight="400" text-anchor="middle">contexto p/ IA</text><text x="480.0" y="243" fill="#2f6fc4" font-family="Caveat, Segoe Script, cursive" font-size="25" font-weight="400" text-anchor="middle">documentação viva</text><text x="480.0" y="187" fill="#2f6fc4" font-family="Caveat, Segoe Script, cursive" font-size="25" font-weight="400" text-anchor="middle">medição contínua</text><text x="600" y="196" fill="#d83a2c" font-family="Caveat, Segoe Script, cursive" font-size="26" font-weight="400" text-anchor="start" transform="rotate(-8 600 196)">NOVO</text><text x="584" y="140" fill="#d83a2c" font-family="Caveat, Segoe Script, cursive" font-size="26" font-weight="400" text-anchor="start" transform="rotate(-8 584 140)">NOVO</text><g filter="url(#rough)"><path d="M150,470 h70 v18 h-70 Z" fill="none" stroke="#15130f" stroke-width="3.2" stroke-linecap="round" stroke-linejoin="round"/></g><g transform="translate(150 350) scale(1.05 1.05)" filter="url(#rough)"><path d="M43,6 C20,6 13,29 16,58 C18,87 25,111 43,111 C61,111 68,87 70,58 C73,29 66,6 43,6 Z" fill="#15130f"/><circle cx="34" cy="50" r="5.4" fill="#fff"/><circle cx="53" cy="50" r="5.4" fill="#fff"/><path d="M35,109 L31,127" fill="none" stroke="#15130f" stroke-width="4" stroke-linecap="round" stroke-linejoin="round"/><path d="M31,127 L40,128" fill="none" stroke="#15130f" stroke-width="4" stroke-linecap="round" stroke-linejoin="round"/><path d="M51,109 L55,127" fill="none" stroke="#15130f" stroke-width="4" stroke-linecap="round" stroke-linejoin="round"/><path d="M55,127 L64,128" fill="none" stroke="#15130f" stroke-width="4" stroke-linecap="round" stroke-linejoin="round"/></g><path d="M196,378 C235,360 270,300 300,210" fill="none" stroke="#15130f" stroke-width="4" stroke-linecap="round" stroke-linejoin="round"/><text x="120" y="330" fill="#15130f" font-family="Caveat, Segoe Script, cursive" font-size="26" font-weight="400" text-anchor="start">UX empilha</text><text x="700" y="470" fill="#ef8a1f" font-family="Caveat, Segoe Script, cursive" font-size="27" font-weight="400" text-anchor="start" transform="rotate(-2 700 470)">uma definição, muitos consumidores</text></svg>