<svg xmlns="http://www.w3.org/2000/svg" viewBox="0 0 1000 560" width="1000" height="560" role="img"><rect width="1000" height="560" fill="#ffffff"/><defs>
  <filter id="rough" x="-6%" y="-6%" width="112%" height="112%">
    <feTurbulence type="fractalNoise" baseFrequency="0.011" numOctaves="2" seed="19" result="n"/>
    <feDisplacementMap in="SourceGraphic" in2="n" scale="3.1"/>
  </filter>
  <filter id="rough2" x="-6%" y="-6%" width="112%" height="112%">
    <feTurbulence type="fractalNoise" baseFrequency="0.02" numOctaves="2" seed="22" result="n2"/>
    <feDisplacementMap in="SourceGraphic" in2="n2" scale="2"/>
  </filter>
</defs><path d="M500,70 L500,500" fill="none" stroke="#15130f" stroke-width="2.2" stroke-linecap="round" stroke-linejoin="round" stroke-dasharray="3 10"/><g filter="url(#rough)"><path d="M150,120 h170 v150 h-170 Z" fill="none" stroke="#15130f" stroke-width="3.4" stroke-linecap="round" stroke-linejoin="round"/><path d="M170,140 L300,250" fill="none" stroke="#15130f" stroke-width="2" stroke-linecap="round" stroke-linejoin="round"/><path d="M300,150 L185,250" fill="none" stroke="#15130f" stroke-width="2" stroke-linecap="round" stroke-linejoin="round"/><path d="M150,120 L320,270" fill="none" stroke="#15130f" stroke-width="2" stroke-linecap="round" stroke-linejoin="round"/></g><text x="235" y="110" fill="#15130f" font-family="Caveat, Segoe Script, cursive" font-size="24" font-weight="400" text-anchor="middle">figma-espelho</text><g transform="translate(195 280) scale(0.8 0.8)" filter="url(#rough)"><path d="M43,6 C20,6 13,29 16,58 C18,87 25,111 43,111 C61,111 68,87 70,58 C73,29 66,6 43,6 Z" fill="#15130f"/><circle cx="34" cy="50" r="5.4" fill="#fff"/><circle cx="53" cy="50" r="5.4" fill="#fff"/><path d="M35,109 L31,127" fill="none" stroke="#15130f" stroke-width="4" stroke-linecap="round" stroke-linejoin="round"/><path d="M31,127 L40,128" fill="none" stroke="#15130f" stroke-width="4" stroke-linecap="round" stroke-linejoin="round"/><path d="M51,109 L55,127" fill="none" stroke="#15130f" stroke-width="4" stroke-linecap="round" stroke-linejoin="round"/><path d="M55,127 L64,128" fill="none" stroke="#15130f" stroke-width="4" stroke-linecap="round" stroke-linejoin="round"/></g><path d="M210,300 C200,285 205,278 235,275" fill="none" stroke="#15130f" stroke-width="4" stroke-linecap="round" stroke-linejoin="round"/><path d="M250,300 C262,285 270,278 290,275" fill="none" stroke="#15130f" stroke-width="4" stroke-linecap="round" stroke-linejoin="round"/><g filter="url(#rough2)"><circle cx="160" cy="320" r="3" fill="#2f6fc4"/><circle cx="300" cy="330" r="3" fill="#2f6fc4"/></g><text x="140" y="360" fill="#2f6fc4" font-family="Caveat, Segoe Script, cursive" font-size="22" font-weight="400" text-anchor="start" transform="rotate(-10 140 360)">suor</text><text x="235" y="470" fill="#d83a2c" font-family="Caveat, Segoe Script, cursive" font-size="26" font-weight="400" text-anchor="middle">desatualizado — pesa e ninguém usa</text><g filter="url(#rough)"><path d="M560,300 h230" fill="none" stroke="#15130f" stroke-width="6" stroke-linecap="round" stroke-linejoin="round"/><path d="M560,300 v60" fill="none" stroke="#15130f" stroke-width="4" stroke-linecap="round" stroke-linejoin="round"/></g><text x="600" y="290" fill="#15130f" font-family="Caveat, Segoe Script, cursive" font-size="24" font-weight="400" text-anchor="start">entrega</text><g transform="translate(760 230) scale(0.78 0.78)" filter="url(#rough)"><path d="M43,6 C20,6 13,29 16,58 C18,87 25,111 43,111 C61,111 68,87 70,58 C73,29 66,6 43,6 Z" fill="#15130f"/><circle cx="34" cy="50" r="5.4" fill="#fff"/><circle cx="53" cy="50" r="5.4" fill="#fff"/><path d="M35,109 L31,127" fill="none" stroke="#15130f" stroke-width="4" stroke-linecap="round" stroke-linejoin="round"/><path d="M31,127 L40,128" fill="none" stroke="#15130f" stroke-width="4" stroke-linecap="round" stroke-linejoin="round"/><path d="M51,109 L55,127" fill="none" stroke="#15130f" stroke-width="4" stroke-linecap="round" stroke-linejoin="round"/><path d="M55,127 L64,128" fill="none" stroke="#15130f" stroke-width="4" stroke-linecap="round" stroke-linejoin="round"/></g><path d="M820,330 C840,360 845,400 842,440" fill="none" stroke="#15130f" stroke-width="2" stroke-linecap="round" stroke-linejoin="round" stroke-dasharray="2 9"/><text x="820" y="470" fill="#d83a2c" font-family="Caveat, Segoe Script, cursive" font-size="26" font-weight="400" text-anchor="middle">...e depois? sem dados</text><text x="700" y="130" fill="#15130f" font-family="Caveat, Segoe Script, cursive" font-size="28" font-weight="400" text-anchor="middle">dois problemas sem dono</text></svg>