<svg xmlns="http://www.w3.org/2000/svg" viewBox="0 0 1000 560" width="1000" height="560" role="img"><rect width="1000" height="560" fill="#ffffff"/><defs>
  <filter id="rough" x="-6%" y="-6%" width="112%" height="112%">
    <feTurbulence type="fractalNoise" baseFrequency="0.011" numOctaves="2" seed="14" result="n"/>
    <feDisplacementMap in="SourceGraphic" in2="n" scale="3.1"/>
  </filter>
  <filter id="rough2" x="-6%" y="-6%" width="112%" height="112%">
    <feTurbulence type="fractalNoise" baseFrequency="0.02" numOctaves="2" seed="17" result="n2"/>
    <feDisplacementMap in="SourceGraphic" in2="n2" scale="2"/>
  </filter>
</defs><g filter="url(#rough)"><path d="M210,330 q90,-40 180,0 l0,150 q-90,30 -180,0 Z" fill="#15130f"/><path d="M210,330 q90,-40 180,0 l0,150 q-90,30 -180,0 Z" fill="none" stroke="#15130f" stroke-width="3.4" stroke-linecap="round" stroke-linejoin="round"/><path d="M210,330 q90,40 180,0" fill="none" stroke="#15130f" stroke-width="2.6" stroke-linecap="round" stroke-linejoin="round"/><path d="M205,330 q95,-70 190,0" fill="none" stroke="#15130f" stroke-width="3.2" stroke-linecap="round" stroke-linejoin="round"/><path d="M205,330 v-26 M395,330 v-26" fill="none" stroke="#15130f" stroke-width="3.4" stroke-linecap="round" stroke-linejoin="round"/></g><text x="300" y="410" fill="#fff" font-family="Caveat, Segoe Script, cursive" font-size="30" font-weight="700" text-anchor="middle">tokens</text><text x="300" y="300" fill="#15130f" font-family="Caveat, Segoe Script, cursive" font-size="25" font-weight="400" text-anchor="middle">1 definição</text><g transform="translate(120 320) scale(0.92 0.92)" filter="url(#rough)"><path d="M43,6 C20,6 13,29 16,58 C18,87 25,111 43,111 C61,111 68,87 70,58 C73,29 66,6 43,6 Z" fill="#15130f"/><circle cx="34" cy="50" r="5.4" fill="#fff"/><circle cx="53" cy="50" r="5.4" fill="#fff"/><path d="M35,109 L31,127" fill="none" stroke="#15130f" stroke-width="4" stroke-linecap="round" stroke-linejoin="round"/><path d="M31,127 L40,128" fill="none" stroke="#15130f" stroke-width="4" stroke-linecap="round" stroke-linejoin="round"/><path d="M51,109 L55,127" fill="none" stroke="#15130f" stroke-width="4" stroke-linecap="round" stroke-linejoin="round"/><path d="M55,127 L64,128" fill="none" stroke="#15130f" stroke-width="4" stroke-linecap="round" stroke-linejoin="round"/></g><path d="M166,350 C185,335 198,322 208,312" fill="none" stroke="#15130f" stroke-width="4" stroke-linecap="round" stroke-linejoin="round"/><path d="M208,312 l24,-6" fill="none" stroke="#15130f" stroke-width="3.4" stroke-linecap="round" stroke-linejoin="round"/><path d="M380,360 C520,330 560,250 640,210" fill="none" stroke="#ef8a1f" stroke-width="7" stroke-linecap="round" stroke-linejoin="round"/><path d="M380,400 C540,400 620,360 700,330" fill="none" stroke="#ef8a1f" stroke-width="7" stroke-linecap="round" stroke-linejoin="round"/><g transform="translate(642 210) rotate(-35)"><path d="M0,0 L-14,-8 L-14,8 Z" fill="#ef8a1f"/></g><g transform="translate(702 330) rotate(-25)"><path d="M0,0 L-14,-8 L-14,8 Z" fill="#ef8a1f"/></g><g filter="url(#rough)"><path d="M620,180 h70 l-8,70 h-54 Z" fill="none" stroke="#15130f" stroke-width="3" stroke-linecap="round" stroke-linejoin="round"/></g><text x="655" y="165" fill="#15130f" font-family="Caveat, Segoe Script, cursive" font-size="24" font-weight="400" text-anchor="middle">figma</text><g filter="url(#rough)"><path d="M690,300 h70 l-8,70 h-54 Z" fill="none" stroke="#15130f" stroke-width="3" stroke-linecap="round" stroke-linejoin="round"/></g><text x="725" y="285" fill="#15130f" font-family="Caveat, Segoe Script, cursive" font-size="24" font-weight="400" text-anchor="middle">supernova</text><g filter="url(#rough2)"><circle cx="520" cy="285" r="15" fill="none" stroke="#d83a2c" stroke-width="3"/></g><path d="M512,293 l16,-16" fill="none" stroke="#d83a2c" stroke-width="3" stroke-linecap="round" stroke-linejoin="round"/><text x="540" y="470" fill="#d83a2c" font-family="Caveat, Segoe Script, cursive" font-size="27" font-weight="400" text-anchor="middle">puxado automático — nunca ao contrário</text><text x="470" y="250" fill="#ef8a1f" font-family="Caveat, Segoe Script, cursive" font-size="23" font-weight="400" text-anchor="start" transform="rotate(-18 470 250)">puxa</text></svg>