<svg xmlns="http://www.w3.org/2000/svg" viewBox="0 0 1000 560" width="1000" height="560" role="img"><rect width="1000" height="560" fill="#ffffff"/><defs>
  <filter id="rough" x="-6%" y="-6%" width="112%" height="112%">
    <feTurbulence type="fractalNoise" baseFrequency="0.011" numOctaves="2" seed="23" result="n"/>
    <feDisplacementMap in="SourceGraphic" in2="n" scale="3.1"/>
  </filter>
  <filter id="rough2" x="-6%" y="-6%" width="112%" height="112%">
    <feTurbulence type="fractalNoise" baseFrequency="0.02" numOctaves="2" seed="26" result="n2"/>
    <feDisplacementMap in="SourceGraphic" in2="n2" scale="2"/>
  </filter>
</defs><g filter="url(#rough)"><path d="M430,150 h360 v230 h-360 Z" fill="none" stroke="#15130f" stroke-width="3.4" stroke-linecap="round" stroke-linejoin="round"/><path d="M590,380 v40 M520,420 h140" fill="none" stroke="#15130f" stroke-width="4" stroke-linecap="round" stroke-linejoin="round"/></g><text x="610" y="135" fill="#15130f" font-family="Caveat, Segoe Script, cursive" font-size="24" font-weight="400" text-anchor="middle">a tela em uso</text><g filter="url(#rough2)"><path d="M520,230 l10,-14 M520,230 l14,4 M520,230 l-6,12 M520,230 l-12,-6" fill="none" stroke="#ef8a1f" stroke-width="3" stroke-linecap="round" stroke-linejoin="round"/><path d="M700,300 l10,-14 M700,300 l14,4 M700,300 l-6,12 M700,300 l-12,-6" fill="none" stroke="#ef8a1f" stroke-width="3" stroke-linecap="round" stroke-linejoin="round"/><path d="M640,200 l10,-14 M640,200 l14,4 M640,200 l-6,12 M640,200 l-12,-6" fill="none" stroke="#ef8a1f" stroke-width="3" stroke-linecap="round" stroke-linejoin="round"/></g><text x="700" y="300" fill="#ef8a1f" font-family="Caveat, Segoe Script, cursive" font-size="23" font-weight="400" text-anchor="start">rage click</text><path d="M515,250 l24,24 M539,250 l-24,24" fill="none" stroke="#d83a2c" stroke-width="4" stroke-linecap="round" stroke-linejoin="round"/><text x="470" y="250" fill="#d83a2c" font-family="Caveat, Segoe Script, cursive" font-size="24" font-weight="400" text-anchor="end">dói aqui</text><g transform="translate(250 300) scale(1.0 1.0)" filter="url(#rough)"><path d="M43,6 C20,6 13,29 16,58 C18,87 25,111 43,111 C61,111 68,87 70,58 C73,29 66,6 43,6 Z" fill="#15130f"/><circle cx="34" cy="50" r="5.4" fill="#fff"/><circle cx="53" cy="50" r="5.4" fill="#fff"/><path d="M35,109 L31,127" fill="none" stroke="#15130f" stroke-width="4" stroke-linecap="round" stroke-linejoin="round"/><path d="M31,127 L40,128" fill="none" stroke="#15130f" stroke-width="4" stroke-linecap="round" stroke-linejoin="round"/><path d="M51,109 L55,127" fill="none" stroke="#15130f" stroke-width="4" stroke-linecap="round" stroke-linejoin="round"/><path d="M55,127 L64,128" fill="none" stroke="#15130f" stroke-width="4" stroke-linecap="round" stroke-linejoin="round"/></g><path d="M296,330 C340,320 390,300 432,280" fill="none" stroke="#15130f" stroke-width="4" stroke-linecap="round" stroke-linejoin="round"/><g filter="url(#rough2)"><circle cx="432" cy="278" r="12" fill="none" stroke="#15130f" stroke-width="3"/></g><path d="M250,300 C150,300 130,380 180,420" fill="none" stroke="#2f6fc4" stroke-width="2" stroke-linecap="round" stroke-linejoin="round" stroke-dasharray="2 9"/><g filter="url(#rough)"><path d="M150,420 h120 v70 h-120 Z" fill="none" stroke="#15130f" stroke-width="3" stroke-linecap="round" stroke-linejoin="round"/></g><text x="210" y="450" fill="#15130f" font-family="Caveat, Segoe Script, cursive" font-size="22" font-weight="400" text-anchor="middle">achado</text><text x="210" y="478" fill="#2f6fc4" font-family="Caveat, Segoe Script, cursive" font-size="22" font-weight="400" text-anchor="middle">vira backlog</text><text x="610" y="470" fill="#15130f" font-family="Caveat, Segoe Script, cursive" font-size="26" font-weight="400" text-anchor="middle">observar sem atrapalhar — a evidência guia o próximo sprint</text></svg>