<svg xmlns="http://www.w3.org/2000/svg" viewBox="0 0 1000 560" width="1000" height="560" role="img"><rect width="1000" height="560" fill="#ffffff"/><defs>
  <filter id="rough" x="-6%" y="-6%" width="112%" height="112%">
    <feTurbulence type="fractalNoise" baseFrequency="0.011" numOctaves="2" seed="31" result="n"/>
    <feDisplacementMap in="SourceGraphic" in2="n" scale="3.1"/>
  </filter>
  <filter id="rough2" x="-6%" y="-6%" width="112%" height="112%">
    <feTurbulence type="fractalNoise" baseFrequency="0.02" numOctaves="2" seed="34" result="n2"/>
    <feDisplacementMap in="SourceGraphic" in2="n2" scale="2"/>
  </filter>
</defs><g transform="translate(120 250) scale(1.0 1.0)" filter="url(#rough)"><path d="M43,6 C20,6 13,29 16,58 C18,87 25,111 43,111 C61,111 68,87 70,58 C73,29 66,6 43,6 Z" fill="#15130f"/><circle cx="34" cy="50" r="5.4" fill="#fff"/><circle cx="53" cy="50" r="5.4" fill="#fff"/><path d="M35,109 L31,127" fill="none" stroke="#15130f" stroke-width="4" stroke-linecap="round" stroke-linejoin="round"/><path d="M31,127 L40,128" fill="none" stroke="#15130f" stroke-width="4" stroke-linecap="round" stroke-linejoin="round"/><path d="M51,109 L55,127" fill="none" stroke="#15130f" stroke-width="4" stroke-linecap="round" stroke-linejoin="round"/><path d="M55,127 L64,128" fill="none" stroke="#15130f" stroke-width="4" stroke-linecap="round" stroke-linejoin="round"/></g><path d="M150,250 C150,210 175,180 210,175" fill="none" stroke="#15130f" stroke-width="4" stroke-linecap="round" stroke-linejoin="round"/><path d="M196,255 C210,215 235,185 270,178" fill="none" stroke="#15130f" stroke-width="4" stroke-linecap="round" stroke-linejoin="round"/><g filter="url(#rough)"><path d="M205,120 h95 v60 h-95 Z" fill="#15130f"/><path d="M205,120 h95 v60 h-95 Z" fill="none" stroke="#15130f" stroke-width="3.4" stroke-linecap="round" stroke-linejoin="round"/><path d="M218,120 v-14 h69 v14" fill="none" stroke="#15130f" stroke-width="3" stroke-linecap="round" stroke-linejoin="round"/></g><text x="252" y="158" fill="#fff" font-family="Caveat, Segoe Script, cursive" font-size="22" font-weight="700" text-anchor="middle">@gb/tokens</text><text x="252" y="100" fill="#15130f" font-family="Caveat, Segoe Script, cursive" font-size="24" font-weight="400" text-anchor="middle">1 definição p/ toda a GB</text><path d="M300,180 C420,210 430,250 440,290" fill="none" stroke="#ef8a1f" stroke-width="7" stroke-linecap="round" stroke-linejoin="round"/><g transform="translate(441 292) rotate(75)"><path d="M0,0 L-13,-7 L-13,7 Z" fill="#ef8a1f"/></g><g filter="url(#rough)"><path d="M420,300 h150 v54 h-150 Z" fill="none" stroke="#15130f" stroke-width="3.2" stroke-linecap="round" stroke-linejoin="round"/></g><text x="495" y="334" fill="#15130f" font-family="Caveat, Segoe Script, cursive" font-size="24" font-weight="400" text-anchor="middle">@gb/ui</text><path d="M495,354 V410" fill="none" stroke="#ef8a1f" stroke-width="7" stroke-linecap="round" stroke-linejoin="round"/><g transform="translate(495 412) rotate(90)"><path d="M0,0 L-13,-7 L-13,7 Z" fill="#ef8a1f"/></g><g filter="url(#rough)"><path d="M410,420 h170 v54 h-170 Z" fill="none" stroke="#15130f" stroke-width="3.2" stroke-linecap="round" stroke-linejoin="round"/></g><text x="495" y="454" fill="#15130f" font-family="Caveat, Segoe Script, cursive" font-size="24" font-weight="400" text-anchor="middle">projetos GB</text><text x="560" y="230" fill="#ef8a1f" font-family="Caveat, Segoe Script, cursive" font-size="24" font-weight="400" text-anchor="start" transform="rotate(18 560 230)">propaga por bump</text><g filter="url(#rough)"><path d="M720,250 v160" fill="none" stroke="#15130f" stroke-width="5" stroke-linecap="round" stroke-linejoin="round"/><path d="M720,300 h120" fill="none" stroke="#15130f" stroke-width="5" stroke-linecap="round" stroke-linejoin="round"/></g><text x="740" y="240" fill="#15130f" font-family="Caveat, Segoe Script, cursive" font-size="26" font-weight="400" text-anchor="start">lint</text><g transform="translate(700 380) scale(0.62 0.62)" filter="url(#rough)"><path d="M43,6 C20,6 13,29 16,58 C18,87 25,111 43,111 C61,111 68,87 70,58 C73,29 66,6 43,6 Z" fill="#15130f"/><circle cx="34" cy="50" r="5.4" fill="#fff"/><circle cx="53" cy="50" r="5.4" fill="#fff"/><path d="M35,109 L31,127" fill="none" stroke="#15130f" stroke-width="4" stroke-linecap="round" stroke-linejoin="round"/><path d="M31,127 L40,128" fill="none" stroke="#15130f" stroke-width="4" stroke-linecap="round" stroke-linejoin="round"/><path d="M51,109 L55,127" fill="none" stroke="#15130f" stroke-width="4" stroke-linecap="round" stroke-linejoin="round"/><path d="M55,127 L64,128" fill="none" stroke="#15130f" stroke-width="4" stroke-linecap="round" stroke-linejoin="round"/></g><g filter="url(#rough)"><path d="M880,280 h90 v44 h-90 Z" fill="none" stroke="#15130f" stroke-width="3" stroke-linecap="round" stroke-linejoin="round"/></g><text x="925" y="308" fill="#15130f" font-family="Caveat, Segoe Script, cursive" font-size="22" font-weight="400" text-anchor="middle">#059669</text><path d="M895,270 l30,30 M925,270 l-30,30" fill="none" stroke="#d83a2c" stroke-width="4" stroke-linecap="round" stroke-linejoin="round"/><text x="925" y="360" fill="#d83a2c" font-family="Caveat, Segoe Script, cursive" font-size="24" font-weight="400" text-anchor="middle">hardcode barrado</text><path d="M870,302 H846" fill="none" stroke="#ef8a1f" stroke-width="6" stroke-linecap="round" stroke-linejoin="round" stroke-dasharray="3 8"/></svg>